<svg width="20" height="21" viewBox="0 0 20 21" fill="none" xmlns="http://www.w3.org/2000/svg">
  <path d="M9.49828 1.27389C9.70351 0.858045 10.2965 0.858045 10.5017 1.27389L13.1585 6.65701C13.24 6.82215 13.3975 6.9366 13.5797 6.96308L19.5203 7.82631C19.9793 7.89299 20.1625 8.45694 19.8304 8.78063L15.5317 12.9708C15.3999 13.0993 15.3397 13.2845 15.3708 13.466L16.3856 19.3827C16.464 19.8397 15.9843 20.1883 15.5738 19.9725L10.2604 17.179C10.0974 17.0933 9.90264 17.0933 9.73965 17.179L4.42618 19.9725C4.01572 20.1883 3.53599 19.8397 3.61438 19.3827L4.62916 13.466C4.66029 13.2845 4.60012 13.0993 4.46825 12.9708L0.169572 8.78063C-0.162497 8.45694 0.0207428 7.89299 0.479652 7.82631L6.42028 6.96308C6.60252 6.9366 6.76005 6.82215 6.84155 6.65701L9.49828 1.27389Z" fill="#FBC84A"/>
</svg>
