<svg width="86" height="86" viewBox="0 0 86 86" fill="none" xmlns="http://www.w3.org/2000/svg">
  <path d="M11.75 84.6667V63.8333M11.75 22.1667V1.33333M1.33337 11.75H22.1667M1.33337 74.25H22.1667M47.1667 5.5L39.941 24.2869C38.7659 27.342 38.1784 28.8696 37.2647 30.1545C36.455 31.2933 35.46 32.2883 34.3212 33.098C33.0363 34.0117 31.5088 34.5992 28.4536 35.7743L9.66671 43L28.4536 50.2257C31.5088 51.4008 33.0363 51.9883 34.3212 52.902C35.46 53.7117 36.455 54.7067 37.2647 55.8455C38.1784 57.1304 38.7659 58.6579 39.941 61.7131L47.1667 80.5L54.3925 61.7131C55.5675 58.6579 56.155 57.1304 57.0687 55.8455C57.8784 54.7067 58.8734 53.7117 60.0122 52.902C61.2971 51.9883 62.8247 51.4008 65.8798 50.2257L84.6667 43L65.8798 35.7743C62.8247 34.5992 61.2971 34.0117 60.0122 33.098C58.8734 32.2883 57.8784 31.2933 57.0687 30.1545C56.155 28.8696 55.5675 27.342 54.3924 24.2869L47.1667 5.5Z" stroke="white" stroke-width="2" stroke-linecap="round" stroke-linejoin="round"/>
</svg>
